<svg
  xmlns="http://www.w3.org/2000/svg"
  xmlns:xlink="http://www.w3.org/1999/xlink"
  viewBox="0 0 280 217.15260941378182"
  height="217.15260941378182"
  width="280"
  style="
      width: 280px;
      height: 217.153px;
      position: absolute;
      top: 50%;
      left: 50%;
      transform: translate(-50%, -50%) scale(0.663128);
      z-index: 0;
      cursor: pointer;
    "
>
  <defs id="SvgjsDefs1015"></defs>
  <g
    id="SvgjsG1016"
    featurekey="symbolFeature-0"
    transform="matrix(1.6816155276744236,0,0,1.6816155276744236,86.48993978680267,-15.369966500281105)"
    fill="#ff5722"
  >
    <g xmlns="http://www.w3.org/2000/svg">
      <path
        fill="#ff5722"
        d="M44.868,25.026c-2.097,0-3.795,1.7-3.795,3.796   c0,2.096,1.698,3.796,3.795,3.796c2.095,0,3.796-1.7,3.796-3.796C48.664,26.726,46.963,25.026,44.868,25.026z M19.813,25.026   c-2.098,0-3.796,1.7-3.796,3.796c0,2.096,1.699,3.796,3.796,3.796c2.096,0,3.795-1.7,3.795-3.796   C23.608,26.726,21.909,25.026,19.813,25.026z M9.242,20.24c-0.741-0.744-1.11-1.718-1.11-2.686c0-0.973,0.369-1.946,1.11-2.687   c0.745-0.74,1.714-1.109,2.686-1.109c0.973,0,1.946,0.369,2.686,1.109l-0.887,0.655c5.137-3.995,11.597-6.382,18.613-6.382   c7.018,0,13.469,2.386,18.613,6.382l-0.884-0.652c0.741-0.741,1.711-1.11,2.686-1.11c0.97,0,1.944,0.369,2.683,1.11   c0.738,0.745,1.107,1.718,1.107,2.686c0,0.974-0.366,1.946-1.107,2.687l0.886,0.651c12.835,12.834-9.011,18.613-9.011,18.613   H17.368c-0.63,0-22.741-4.884-9.011-18.613L9.242,20.24z"
      ></path>
    </g>
    <path
      xmlns="http://www.w3.org/2000/svg"
      fill="#ff5722"
      d="M52.358,53.063c-2.55,0-4.617-2.067-4.617-4.618l0,0c0-2.55,2.067-4.617,4.617-4.617l0,0  c2.55,0,4.617,2.067,4.617,4.617l0,0C56.976,50.996,54.908,53.063,52.358,53.063L52.358,53.063z"
    ></path>
    <path
      xmlns="http://www.w3.org/2000/svg"
      fill="#ff5722"
      d="M14.422,53.483c-2.551,0-4.618-2.067-4.618-4.618l0,0c0-2.55,2.067-4.617,4.618-4.617l0,0  c2.551,0,4.618,2.067,4.618,4.617l0,0C19.04,51.416,16.973,53.483,14.422,53.483L14.422,53.483z"
    ></path>
    <path
      xmlns="http://www.w3.org/2000/svg"
      fill="#ff5722"
      d="M18.526,40.461h27.726C46.252,40.461,32.81,45.081,18.526,40.461z"
    ></path>
  </g>
  <g
    id="SvgjsG1017"
    featurekey="nameFeature-0"
    transform="matrix(2.6923080873207805,0,0,2.6923080873207805,-3.2307698331641905,62.69231065490586)"
    fill="#eeeeee"
  >
    <path
      d="M4.92 40 l-3.72 -3.72 l0 -20.56 l3.72 -3.72 l8.8 0 l3.72 3.72 l0 5.24 l-5.04 0 l0 -3.16 l-0.76 -0.76 l-4.64 0 l-0.76 0.76 l0 16.4 l0.76 0.76 l4.64 0 l0.76 -0.76 l0 -3.16 l5.04 0 l0 5.24 l-3.72 3.72 l-8.8 0 z M26.450000000000003 40 l-3.72 -3.72 l0 -20.56 l3.72 -3.72 l9.08 0 l3.72 3.72 l0 20.56 l-3.72 3.72 l-9.08 0 z M28.53 34.96 l4.92 0 l0.76 -0.76 l0 -16.4 l-0.76 -0.76 l-4.92 0 l-0.76 0.76 l0 16.4 z M44.540000000000006 40 l0 -4.48 l0.84 -0.56 l0 -17.92 l-0.84 -0.56 l0 -4.48 l12.8 0 l3.72 3.72 l0 10.2 l-2.16 2.2 l1.72 6.68 l1 0.72 l0 4.48 l-6.88 0 l0 -4.48 l0.72 -0.48 l-1.4 -5.4 l-3.64 0 l0 5.32 l0.84 0.56 l0 4.48 l-6.72 0 z M50.42 24.6 l4.84 0 l0.76 -0.76 l0 -6.04 l-0.76 -0.76 l-4.84 0 l0 7.56 z M66.55000000000001 40 l0 -4.48 l0.84 -0.56 l0 -17.92 l-0.84 -0.56 l0 -4.48 l6.2 0 l5.84 14.96 l0 -9.92 l-0.84 -0.56 l0 -4.48 l6.72 0 l0 4.48 l-0.84 0.56 l0 22.96 l-5.36 0 l-5.84 -14.96 l0 9.92 l0.84 0.56 l0 4.48 l-6.72 0 z M93.72 40 l0 -4.48 l0.84 -0.56 l0 -5.36 l-4.44 -12.36 l-1.16 -0.76 l0 -4.48 l4.6 0 l3.52 9.72 l3.52 -9.72 l4.6 0 l0 4.48 l-1.16 0.76 l-4.44 12.28 l0 5.48 l0.84 0.52 l0 4.48 l-6.72 0 z"
    ></path>
  </g>
  <g
    id="SvgjsG1018"
    featurekey="sloganFeature-0"
    transform="matrix(1.772363132743821,0,0,1.772363132743821,75.8935888016235,181.38631409310042)"
    fill="#ff5722"
  >
    <path
      d="M7.08 16.04 c-0.01334 0.68 -0.079962 1.2767 -0.19996 1.79 s-0.31666 0.94334 -0.59 1.29 s-0.63668 0.61 -1.09 0.79 s-1.02 0.27 -1.7 0.27 c-1.1867 0 -2.0566 -0.35666 -2.61 -1.07 s-0.83 -1.7433 -0.83 -3.09 l0 -7 c0 -1.3733 0.28 -2.41 0.84 -3.11 s1.4867 -1.05 2.78 -1.05 c1.2 0 2.06 0.35666 2.58 1.07 s0.79334 1.7367 0.82 3.07 l0.02 1.28 l-1.56 0 l-0.02 -1.5 c0 -0.29334 -0.02666 -0.58334 -0.08 -0.87 s-0.14668 -0.53666 -0.28002 -0.75 s-0.32 -0.38668 -0.56 -0.52002 s-0.56 -0.2 -0.96 -0.2 c-0.78666 0 -1.3167 0.23 -1.59 0.69 s-0.41 1.09 -0.41 1.89 l0.02 7.1 c0 0.81334 0.13 1.4167 0.39 1.81 s0.74334 0.59 1.45 0.59 c0.4 0 0.73 -0.05334 0.99 -0.16 s0.46666 -0.26 0.62 -0.46 s0.26 -0.44666 0.32 -0.74 s0.09 -0.62668 0.09 -1 l0.02 -1.62 l1.56 0 z M12.34 20.18 c-1.2533 0 -2.1966 -0.35334 -2.83 -1.06 s-0.95 -1.74 -0.95 -3.1 l0 -7 c0 -1.3733 0.32 -2.41 0.96 -3.11 s1.66 -1.05 3.06 -1.05 c1.28 0 2.2334 0.35334 2.86 1.06 s0.94 1.7267 0.94 3.06 l0 7.04 c0 1.3733 -0.30666 2.41 -0.92 3.11 s-1.6533 1.05 -3.12 1.05 z M14.66 8.96 c0 -0.29334 -0.03664 -0.58334 -0.10998 -0.87 s-0.19 -0.54332 -0.35 -0.76998 s-0.37334 -0.41 -0.64 -0.55 s-0.6 -0.21 -1 -0.21 c-0.45334 0 -0.82668 0.06 -1.12 0.18 s-0.52668 0.29666 -0.70002 0.53 s-0.29334 0.51 -0.36 0.83 s-0.1 0.68 -0.1 1.08 l0 6.74 c0 0.30666 0.03334 0.61 0.1 0.91 s0.17666 0.57 0.33 0.81 s0.36334 0.43334 0.63 0.58 s0.6 0.22 1 0.22 c0.45334 0 0.83 -0.05666 1.13 -0.17 s0.53666 -0.27668 0.71 -0.49002 s0.29668 -0.47334 0.37002 -0.78 s0.11 -0.64666 0.11 -1.02 l0 -7.02 z M24.96 20 l-3 -5.9 l-2.18 0 l0 5.9 l-1.66 0 l0 -15 l3.48 0 c0.78666 0 1.46 0.12334 2.02 0.37 s1.02 0.58 1.38 1 s0.62666 0.9 0.8 1.44 s0.26 1.1033 0.26 1.69 c0 0.46666 -0.05666 0.92 -0.17 1.36 s-0.27668 0.84666 -0.49002 1.22 s-0.46334 0.71 -0.75 1.01 s-0.59666 0.53666 -0.93 0.71 l3.34 6.2 l-2.1 0 z M21.48 6.66 l-1.7 0.000019531 l0 5.7 l1.82 0 c0.54666 0 0.99666 -0.08334 1.35 -0.25 s0.63 -0.38666 0.83 -0.66 s0.34 -0.58668 0.42 -0.94002 s0.12 -0.72334 0.12 -1.11 s-0.06334 -0.74666 -0.19 -1.08 s-0.31 -0.62334 -0.55 -0.87 s-0.53666 -0.44 -0.89 -0.58 s-0.75668 -0.21 -1.21 -0.21 z M34.4 20 l-4.64 -10.76 l0 10.76 l-1.76 0 l0 -15 l1.68 0 l4.68 10.34 l0.1 -10.34 l1.74 0 l0 15 l-1.8 0 z M42.2 6.82 l0 13.18 l-1.8 0 l0 -13.18 l-2.94 0 l0 -1.82 l7.68 0 l0 1.82 l-2.94 0 z M50.3 20.18 c-1.2133 0 -2.16 -0.35664 -2.84 -1.07 s-1.02 -1.7433 -1.02 -3.09 l0 -11.02 l1.74 0 l0 10.98 c0 0.28 0.03666 0.56666 0.11 0.86 s0.19 0.55334 0.35 0.78 s0.37334 0.41332 0.64 0.55998 s0.59332 0.22 0.97998 0.22 c0.44 0 0.80666 -0.06334 1.1 -0.19 s0.52668 -0.31 0.70002 -0.55 s0.29668 -0.52666 0.37002 -0.86 s0.11 -0.7 0.11 -1.1 l0 -10.7 l1.72 0 l0 11.02 c0 1.3733 -0.32666 2.41 -0.98 3.11 s-1.6467 1.05 -2.98 1.05 z M62.419999999999995 18.88 c-0.38666 0.38666 -0.84662 0.67008 -1.38 0.85008 s-1.1267 0.27 -1.78 0.27 l-3.46 0 l0 -15 l3.02 0 c0.78666 0 1.4433 0.11 1.97 0.33 s0.95 0.51666 1.27 0.89 s0.54666 0.80334 0.68 1.29 s0.2 0.99666 0.2 1.53 c0 0.54666 -0.13666 1.05 -0.41 1.51 s-0.59 0.86334 -0.95 1.21 c0.05334 0.02666 0.10334 0.06 0.15 0.1 s0.10332 0.08 0.16998 0.12 c0.17334 0.14666 0.36668 0.32332 0.58002 0.52998 s0.41 0.45332 0.59 0.73998 s0.33 0.61332 0.45 0.97998 s0.18 0.77666 0.18 1.23 c0 0.74666 -0.11 1.4033 -0.33 1.97 s-0.53666 1.05 -0.95 1.45 z M59.239999999999995 6.74 l-1.74 -0.000019531 l0 4.34 l1.94 0 c0.25334 0 0.49334 -0.05334 0.72 -0.16 s0.42666 -0.25 0.6 -0.43 s0.30668 -0.39666 0.40002 -0.65 s0.14 -0.52 0.14 -0.8 c0 -0.24 -0.03 -0.49334 -0.09 -0.76 s-0.16666 -0.51332 -0.32 -0.73998 s-0.36334 -0.41666 -0.63 -0.57 s-0.60666 -0.23 -1.02 -0.23 z M59.36 12.8 l-1.86 0 l0 5.42 l1.56 0 c0.37334 0 0.74 -0.04666 1.1 -0.14 s0.68 -0.24334 0.96 -0.45 s0.50334 -0.48 0.67 -0.82 s0.25 -0.76334 0.25 -1.27 c0 -0.94666 -0.25666 -1.64 -0.77 -2.08 s-1.15 -0.66 -1.91 -0.66 z M64.78 20 l0 -15 l7.36 0 l0 1.88 l-5.68 0 l0 4.62 l5.64 0 l0 1.66 l-5.64 0 l0 4.96 l5.82 0 l0 1.88 l-7.5 0 z"
    ></path>
  </g>
</svg>